<?xml version="1.0" encoding="utf-8"?>
<!-- Generator: Adobe Illustrator 19.1.0, SVG Export Plug-In . SVG Version: 6.00 Build 0)  -->
<!DOCTYPE svg PUBLIC "-//W3C//DTD SVG 1.1//EN" "http://www.w3.org/Graphics/SVG/1.1/DTD/svg11.dtd">
<svg version="1.1" xmlns="http://www.w3.org/2000/svg" xmlns:xlink="http://www.w3.org/1999/xlink" x="0px" y="0px"
	 viewBox="0 0 347.3 347.3" enable-background="new 0 0 347.3 347.3" xml:space="preserve">
<g id="Layer_2">
	
		<rect x="52.1" y="52.1" transform="matrix(0.7071 0.7071 -0.7071 0.7071 173.653 -71.9294)" fill="#FFFFFF" width="243.1" height="243.1"/>
</g>
<g id="Layer_1">
	<polygon fill="#50423E" points="278.8,219.4 278.8,219.4 278.8,219.4 	"/>
	<path fill="none" d="M159.3,254.6c-0.1-0.4-0.2-0.7-0.3-0.9c-0.1-0.2-0.3-0.4-0.4-0.6c-0.3-0.4-0.8-0.6-1.4-0.6H155l0,0.6V266
		l0,0.6h2.2c0.6,0,1.1-0.2,1.4-0.6c0.2-0.2,0.3-0.4,0.4-0.6c0.1-0.2,0.2-0.5,0.3-0.9c0.1-0.4,0.1-0.7,0.2-1c0-0.3,0.1-0.7,0.1-1.2
		c0-0.5,0-1,0-1.3v-2.9c0-1.1,0-1.9-0.1-2.3C159.4,255.4,159.4,255,159.3,254.6z"/>
	<path fill="none" d="M99.9,232.4c0,0.4,0,0.8,0,1.2C99.9,233.2,99.9,232.8,99.9,232.4z"/>
	<path fill="none" d="M98.9,206.5c0.1,0.1,0.1,0.2,0.2,0.3C99,206.7,98.9,206.6,98.9,206.5z"/>
	<path fill="none" d="M92.1,204.2L92.1,204.2c1.3,0,2.3,0.1,3.1,0.2C94.4,204.3,93.4,204.2,92.1,204.2z"/>
	<path fill="none" d="M87.1,241.9L87.1,241.9l4.3,0c2.5,0,4.5-0.4,6.1-1.2c-1.5,0.8-3.5,1.2-6.1,1.2H87.1z"/>
	<path fill="none" d="M99.9,231c0,0.5,0,0.9,0,1.4C99.9,232,99.9,231.5,99.9,231z"/>
	<path fill="none" d="M99.9,228.7c0,0.5,0,1.1,0,1.6C99.9,229.8,99.9,229.3,99.9,228.7z"/>
	<path fill="none" d="M99.9,222.9c0,1.1,0,2.2,0,3.3C99.9,225.1,99.9,224,99.9,222.9z"/>
	<path fill="none" d="M99.9,216.5L99.9,216.5c0,0.5,0,3.2,0,6.4C99.9,219.8,99.9,217.1,99.9,216.5z"/>
	<path fill="none" d="M99.9,227.1c0,0.6,0,1.1,0,1.6C99.9,228.2,99.9,227.6,99.9,227.1z"/>
	<path fill="none" d="M98.8,239.6c0.6-0.9,1-2.2,1.1-4.2c0-0.1,0-0.6,0-1.4c0,0.8,0,1.3,0,1.4C99.8,237.4,99.4,238.8,98.8,239.6z"/>
	<path fill="#50423E" d="M160.5,253.6c-0.1-0.2-0.2-0.5-0.3-0.8c-0.1-0.3-0.3-0.5-0.5-0.7c-0.2-0.2-0.5-0.3-0.8-0.6
		c-0.3-0.2-0.9-0.3-1.7-0.3h-3.6v16.6h3.6c0.8,0,1.4-0.2,2-0.5c0.3-0.1,0.5-0.3,0.7-0.6c0.2-0.3,0.4-0.6,0.5-0.8
		c0.1-0.2,0.2-0.6,0.3-1c0.1-0.5,0.2-0.9,0.2-1.4c0.1-0.4,0.1-1.3,0.1-2.5v-2.9c0-1.1,0-1.9-0.1-2.4c0-0.3-0.1-0.6-0.1-1.1
		C160.7,254.2,160.6,253.9,160.5,253.6z M159.6,260.9c0,0.3,0,0.7,0,1.3c0,0.5-0.1,1-0.1,1.2c0,0.3-0.1,0.6-0.2,1
		c-0.1,0.4-0.2,0.7-0.3,0.9c-0.1,0.2-0.3,0.4-0.4,0.6c-0.3,0.4-0.8,0.6-1.4,0.6H155l0-0.6v-12.9l0-0.6h2.2c0.6,0,1.1,0.2,1.4,0.6
		c0.2,0.2,0.3,0.4,0.4,0.6c0.1,0.2,0.2,0.5,0.3,0.9s0.1,0.8,0.2,1.2c0.1,0.4,0.1,1.2,0.1,2.3V260.9z"/>
	<polygon fill="#50423E" points="169.1,251.6 163.2,251.6 163.2,267.7 169.4,267.7 169.4,266.4 164.7,266.4 164.7,265.9 
		164.7,260.2 164.7,259.6 168.8,259.6 168.8,258.3 164.7,258.3 164.7,257.8 164.7,253.3 164.7,252.8 169.1,252.8 	"/>
	<path fill="#50423E" d="M176.1,266.7c0.2,0.5,0.4,1.1,0.4,1.1l1.3,0v-16.1h-1.4v12.5l-3.9-11.5c-0.2-0.4-0.3-0.8-0.4-1h-1.4v16.1
		h1.4c0,0,0-0.6,0-1.1v-11.2L176.1,266.7z"/>
	<path fill="#50423E" d="M193.8,267.7v-16.1h-1.4l-3.3,7.2h-0.3c0,0-3.2-6.8-3.4-7.2h-1.3v16.1h1.4l-0.1-13l3.2,6.2h0.9l3.1-6.2
		l-0.1,13H193.8z"/>
	<rect x="180.3" y="251.6" fill="#50423E" width="1.4" height="16.1"/>
	<polygon fill="#222838" points="76.3,168.7 89.5,168.7 129.3,124.5 122.2,118.1 	"/>
	<polygon fill="#222838" points="173.7,62 168.8,68.2 168.8,158.8 121,158.8 147.5,129.4 153.4,123 141,111.6 164.3,85.7 
		164.3,71.8 134,105.1 127.4,112.4 134.4,118.9 139.8,123.8 98.9,168.7 168.8,168.7 171.7,168.7 178.6,168.7 178.6,68.2 	"/>
	<polygon fill="#CE6F44" points="228.4,168.7 258.7,168.7 271.7,168.7 263.4,159.2 263.1,158.8 183.8,71.8 183.8,85.7 183.8,158.8 
		183.8,168.7 193.7,168.7 200.1,168.7 209.9,168.7 209.9,158.8 209.9,124 200.1,113.2 200.1,158.8 193.7,158.8 193.7,96.6 
		249.8,158.8 228.4,158.8 	"/>
	<path fill="#50423E" d="M213.2,228.5v-13.4c0-3.6-0.1-21.7-0.4-23.2c-0.1-0.9-0.2-2-0.4-3.4c-0.2-1.3-0.8-3.7-1.8-5.6
		c-0.5-0.9-2-3.1-4-3.9c-1.2-0.5-2.9-1-5.5-1l-11.4,0v68l11.4,0C213.2,245.9,213.2,232.3,213.2,228.5z M194.1,240v-56.3l0-1.8h6.9
		c2,0,3.8,0.4,4.7,1.6c2.2,2.7,2.4,7.3,2.6,8.6c0.2,1.3,0.3,19.2,0.3,22.7v9.1c0,1-0.1,2.4-0.1,4.1c0,6-0.5,13.8-7.6,13.8h-7
		L194.1,240z"/>
	<path fill="#50423E" d="M100.2,201.8c1.3-1.1,2-3,2.1-5.5c0-0.9,0.1-2.3,0.1-4.2s0-3.1,0-3.9c0-0.8-0.1-1.7-0.2-2.9
		c-0.1-1.2-0.7-3-2-4.6c-1.5-1.9-4.9-2.8-10.1-2.8l-7.4,0v68h8.8c3.2,0,6-0.4,8.3-1.3c3.3-1.4,4.3-5.2,4.5-6.4
		c0.2-1.2,0.3-2.2,0.3-3c0-0.8,0-18,0-20.5c0-2.5-0.2-4.8-0.6-6.8C103.5,205,102.2,203,100.2,201.8z M87.1,198.4v-14.6l0-1.8h2.2
		c1.4,0,3,0,4.3,0.1c2.3,0.2,4.2,0.9,4.2,7.6v4.4c0,0.5,0,1.2-0.1,1.9c-0.1,0.8-0.6,2.7-1.9,3.4c-2,1-4,0.7-6.5,0.7h-2.2L87.1,198.4
		z M99.9,216.5L99.9,216.5c0,0.6,0,3.2,0,6.4c0,1.1-0.1,12.4-0.1,12.5c0,3.6-1.8,6.4-8.4,6.4h-4.3v0l0,0l0-1.8v-34.1v0l0-1.8h5h0
		c1.3,0,2.3,0.1,3.1,0.2c0.3,0.1,0.6,0.1,0.9,0.2c0.3,0.1,0.5,0.1,0.7,0.2c0.3,0.1,0.5,0.2,0.7,0.3c0.3,0.1,0.4,0.3,0.5,0.3
		c0.3,0.3,0.6,0.6,0.8,1c0.1,0.1,0.1,0.2,0.2,0.3c0.6,1.3,0.7,2.8,0.8,3.1c0.1,0.2,0.1,0.8,0.1,1.8c0,0.6,0,1.3,0,2.1V216.5z"/>
	<polygon fill="#50423E" points="222.8,240 222.8,206 222.8,204.2 235.8,204.2 235.8,200.2 222.8,200.2 222.8,198.4 222.8,184.3 
		222.8,182.5 236.8,182.5 236.8,178.8 218.1,178.8 218.1,245.9 237.5,245.9 237.5,241.8 222.8,241.8 	"/>
	<path fill="#50423E" d="M172.4,240.1v-60.9h-4.7v66.7h17v-4c-0.1,0-0.3,0-0.4,0h-11.9L172.4,240.1z"/>
	<polygon fill="#50423E" points="291.5,172.7 173.7,49.6 55.9,172.7 78.2,196.9 78.2,192.9 59.6,172.8 173.7,53.4 287.8,172.8 
		265.8,196.6 265.8,200.5 	"/>
	<path fill="#50423E" d="M259.5,202.8c0.5-0.7,0.9-1.7,1.2-2.9c0.3-1.3,0.5-2.5,0.5-3.6c0.1-1.2,0.1-2.9,0.1-5.1
		c0-2.2-0.1-4.2-0.3-5.7c-0.1-1.2-0.7-2.9-1.9-4.6c-1.4-1.9-4.6-2.8-9.5-2.8h-8.1V246h4.5l0-3.6v-35l0-1.8h3.5l11.6,40.4h4.8
		L254,205.5C256.5,205.3,258.4,204.4,259.5,202.8z M246.1,201.5l0-1.8V182h4.9c5.1,0,5.8,3.4,5.8,6c0,0.8,0.1,2,0.1,3.8
		c0,1.8-0.1,3-0.1,3.8c0,3.7-0.7,6-7,6H246.1z"/>
	<polygon fill="#50423E" points="173.7,296.3 129.5,248.4 125.9,248.4 172.7,299.1 173.7,300.2 221.5,248.4 217.9,248.4 	"/>
	<polygon fill="#50423E" points="87.1,241.9 87.1,241.9 87.1,240.1 	"/>
	<path fill="#50423E" d="M96.8,204.8c0.3,0.1,0.5,0.2,0.7,0.3C97.4,205,97.1,204.9,96.8,204.8z"/>
	<path fill="#50423E" d="M99.9,213.7c0-0.8,0-1.5,0-2.1C99.9,212.2,99.9,212.9,99.9,213.7z"/>
	<path fill="#50423E" d="M98.9,206.5c-0.2-0.4-0.5-0.7-0.8-1c-0.1-0.1-0.3-0.2-0.5-0.3c0.3,0.1,0.4,0.3,0.5,0.3
		C98.4,205.7,98.7,206.1,98.9,206.5z"/>
	<polygon fill="#50423E" points="87.1,205.9 87.1,205.9 87.1,204.2 	"/>
	<path fill="#50423E" d="M96.1,204.6c0.3,0.1,0.5,0.1,0.7,0.2C96.6,204.7,96.4,204.7,96.1,204.6z"/>
	<path fill="#50423E" d="M99.9,211.6c0-0.9-0.1-1.5-0.1-1.8c-0.1-0.3-0.2-1.8-0.8-3.1c0.6,1.3,0.7,2.8,0.8,3.1
		C99.8,210.1,99.9,210.7,99.9,211.6z"/>
	<path fill="#50423E" d="M250.1,185.9l0,11.6c2.8,0,3-1.5,3-2.4v-2.6c0-1.6,0-4.7,0-4.7C253.1,185.7,250.2,185.9,250.1,185.9z"/>
	<path fill="#50423E" d="M110.2,189.7L110.2,189.7C110.2,189.6,110.2,189.6,110.2,189.7C110.2,189.6,110.2,189.6,110.2,189.7z"/>
	<path fill="#50423E" d="M122.2,246.2c0.1,0,0.1,0,0.2,0c-0.1,0-0.2,0-0.3,0C122.1,246.2,122.1,246.2,122.2,246.2z"/>
	<path fill="#50423E" d="M134.1,189.6C134.1,189.6,134.1,189.6,134.1,189.6L134.1,189.6C134.1,189.6,134.1,189.6,134.1,189.6z"/>
	<path fill="#50423E" d="M134.1,188.7c-0.2-1.6-0.7-3.3-1.5-4.9c-2.1-3.6-5.9-6.1-10.4-6.1c-4.7,0-8.7,2.7-10.7,6.6
		c-0.7,1.4-1.1,2.9-1.2,4.4c0,0.3,0,0.6,0,0.9c0,0,0,0,0,0.1v44.5c0,2.3,0.8,4.8,2.2,7c2.1,3,5.6,5,9.6,5.1c0.1,0,0.2,0,0.3,0
		c3.8-0.1,7.3-2,9.4-4.9c1.5-2.2,2.3-4.9,2.3-7.2v-44.5c0,0,0,0,0-0.1C134.1,189.3,134.1,189,134.1,188.7z M129.9,189.7v44.5v0.9
		c0,3.9-3.2,7.2-7.2,7.2h-1c-3.9,0-7.2-3.2-7.2-7.2v-0.9v-44.5v-1c0-3.9,3.2-7.2,7.2-7.2h1c3.9,0,7.2,3.2,7.2,7.2V189.7z"/>
	<path fill="#50423E" d="M158.3,179.1v55.1v0.9c0,3.9-3.2,7.2-7.2,7.2h-1c-3.9,0-7.2-3.2-7.2-7.2v-0.9v-55.1V179h-4.2c0,0,0,0,0,0.1
		v55.1c0,2.3,0.8,4.8,2.2,7c2.1,3,5.6,5,9.6,5.1c0.1,0,0.2,0,0.3,0c3.8-0.1,7.3-2,9.4-4.9c1.5-2.2,2.3-4.9,2.3-7.2v-55.1
		c0,0,0,0,0-0.1v0L158.3,179.1L158.3,179.1z"/>
	<path fill="#50423E" d="M90.9,185.9l0,10.4c2.8,0,3-1.5,3-2.4v-2.6c0-1.6,0-3.4,0-3.4C93.9,185.7,91,185.9,90.9,185.9z"/>
</g>
</svg>
