<?xml version="1.0" encoding="utf-8"?>
<!-- Generator: Adobe Illustrator 19.1.0, SVG Export Plug-In . SVG Version: 6.00 Build 0)  -->
<!DOCTYPE svg PUBLIC "-//W3C//DTD SVG 1.1//EN" "http://www.w3.org/Graphics/SVG/1.1/DTD/svg11.dtd">
<svg version="1.1" id="Layer_1" xmlns="http://www.w3.org/2000/svg" xmlns:xlink="http://www.w3.org/1999/xlink" x="0px" y="0px"
	 viewBox="0 0 157.4 85.9" enable-background="new 0 0 157.4 85.9" xml:space="preserve">
<polygon fill="#222838" points="0,85.9 10.6,85.9 42.7,50.3 37,45.1 "/>
<polygon fill="#222838" points="78.5,0 74.5,5 74.5,78 36,78 57.4,54.2 62.1,49.1 52.1,39.9 70.9,19.1 70.9,7.8 46.5,34.7 
	41.2,40.6 46.8,45.8 51.2,49.7 18.2,85.9 28.8,85.9 28.9,85.9 74.5,85.9 76.8,85.9 82.4,85.9 82.4,5 "/>
<polygon fill="#CE6F44" points="122.5,85.9 146.9,85.9 157.4,85.9 150.7,78.2 150.4,78 86.6,7.8 86.6,19.1 86.6,78 86.6,85.9 
	94.5,85.9 99.7,85.9 107.7,85.9 107.7,78 107.7,49.9 99.7,41.2 99.7,78 94.5,78 94.5,27.8 139.8,78 122.5,78 "/>
</svg>
